/* XPM */
static char *result[] = {
/* columns rows colors chars-per-pixel */
"32 32 90 1 ",
"  c black",
". c #040403",
"X c #050604",
"o c #050704",
"O c #060705",
"+ c #060805",
"@ c #070805",
"# c #070806",
"$ c #070906",
"% c #080805",
"& c #080906",
"* c #080907",
"= c #090A06",
"- c #080A07",
"; c #090A07",
": c #0A0B07",
"> c #0A0C07",
", c #090909",
"< c #0A0B08",
"1 c #0B0C08",
"2 c #0B0C09",
"3 c #0B0D09",
"4 c #0C0D09",
"5 c #0C0E09",
"6 c #0D0E09",
"7 c #0C0D0A",
"8 c #0C0E0A",
"9 c #0D0E0A",
"0 c #0D0F0A",
"q c #0D0F0B",
"w c #0E0F0A",
"e c #0D110B",
"r c #0E110B",
"t c #0E110C",
"y c #0E110D",
"u c #0F120C",
"i c #0F130D",
"p c #11130D",
"a c #11140D",
"s c #12140D",
"d c #11140E",
"f c #12160F",
"g c #13160F",
"h c gray7",
"j c #141711",
"k c #151912",
"l c #171B14",
"z c #181C14",
"x c #191D15",
"c c #191D17",
"v c #1B1F16",
"b c #1A1E18",
"n c #1D1D1D",
"m c #221812",
"M c #1B2017",
"N c #1A2018",
"B c #1B2118",
"V c #1B2019",
"C c #1B2119",
"Z c #1B211A",
"A c #1C2118",
"S c #1C2218",
"D c #1D2219",
"F c #1C221A",
"G c #1D231B",
"H c #1E241A",
"J c #232A1E",
"K c #1A2239",
"L c #262D21",
"P c #262E21",
"I c #272E21",
"U c #372B20",
"Y c #293223",
"T c #2A3324",
"R c #353D2B",
"E c #363F2D",
"W c #423426",
"Q c #37412D",
"! c #38422E",
"~ c #584430",
"^ c #47543C",
"/ c #4B503B",
"( c #785D3F",
") c #3D545F",
"_ c #4E5C42",
"` c #58746A",
"' c #957856",
"] c #699484",
"[ c #7AB78E",
"{ c #97C7A5",
/* pixels */
"IIJvyo>>>>>>>>>>>>>>>>>>>>oyvJII",
"_^EV6D/llH//TT!HH!TT//Hll/HwGE^_",
"GGcH:%THH/490wTw6Tww09/HHY:1AFGG",
"EGM/4&<!T96qhhnnnnhhew6TQ<44/BG^",
"GGLH44@466hhKK)KK)KKhh96=444H/GG",
"EGST!9r*ahK)])]K)]K))Khka1r!THG^",
"EGR9353hh)][KK{KK{KK[))hh$q09!G^",
"EFT4<1h)]  ]  ]  ]  ]  )Kh414TG^",
"EC/91n)][)]{)]{)K{)]{)K])Khsw/G^",
"EVH!h)]K)  )  )  )  )  )K)Kh!HG^",
"ENTh)]K ]KK]KK]KK]KK]KK] K)KhPG^",
"EbqhK````]][`][`][`][`]`]``KhtG^",
"EC8,+mmmmmmmmm++++mmmmmmmm++,qG^",
"EZ;,mm'('''~''(m''''~'''~(mm,<G^",
"EGjhmU~WW~WW~(Wm'~~~W~~~W~UmhzG^",
"EGunmW(W(((W((~m((((W(((U(WmnfG^",
"EG<hmW~U(((W~(~m'~(~W(((W~Wmh7G^",
"EGkhmW~W~((~~W~m(W~~W~(~W~WmhxG^",
"EGi,mU~U~~~WW]Wm~]W~U~~~~~Um,gG^",
"EG<,mmWUW~WUUm[m[mUWUW~WUWmm,4G^",
"EGj,+)[]][{[[]mmm][][{[][])+,zG^",
"EGeh+K))))))))mmm)))))))))K+hdG^",
"EG-hmmmmmUmmUm)m)mmmmUUmmmmmh<G^",
"EGpn+mWmWWWmm)mmm)mWmWWWmWU+njG^",
"EG2hmUWm~W~mWmWmWmWWU~W~UWUmhqG^",
"EGOnmUWU~~~U~W~m~W~~W~~~U~Umn&G^",
"EG3hmW~U~~~U~~~m~~~~U~~WW~WmhrG^",
"GG#hmU~W~~~W~~~m~~~~W~~WU~Umh;GG",
"EG.hmW~W~W~U~~Wm~W~~UW~WU~WmhXG^",
"GGGn+UWUWU~U~WWm~WWWUWWWmWU+nGGG",
"_^Eh+mWUUWWmWWUm~WWUmUUUmUm+hE^_",
"__^,                        h^__"
};
