/* XPM */
static char *result[] = {
/* columns rows colors chars-per-pixel */
"32 32 15 1 ",
"  c #2C2308",
". c #202020",
"X c #542508",
"o c #503F0C",
"O c #7C761D",
"+ c #853B0D",
"@ c #8A6C13",
"# c #8B6D14",
"$ c #FF7F2F",
"% c #CBC23A",
"& c #CCC33B",
"* c #CDC33B",
"= c #CBC23C",
"- c #CDC43C",
"; c #FFF892",
/* pixels */
"----=.$++++++++ ooo######.;-----",
"----O.$+++++++X.o#######-.;-----",
"----O.$+++++++X.o#######-.;-----",
"----O.$+++++++X.o#######-.;-----",
"----O.$+++++++X.@#######-.;-----",
"---OO.++++++XX.o.######--..-----",
"-OO..o..+++X..o##..###-..;-..---",
"O..oo###..X.oo#####..-.;;----..%",
".oo#######.o#########.;--------.",
"o########-.o########-.;-------O.",
"o########-.o########-.;-------O.",
"o########-.o########-.;-------O.",
"#########-.o########-.;-------O.",
".#######--.########--.------OO.;",
"-..###--..$..####--..$..--OO..;-",
"---..-..$$+++..#-..$$+++.O..;;--",
"-----.$$+++++++..$$++++++.;;----",
"----O.$+++++++X.$+++++++X.;-----",
"----O.$+++++++X.$+++++++X.;-----",
"----O.$+++++++X.$+++++++X.;-----",
"----O.$+++++++X.++++++++X.------",
"---OO.+++++++X.;.++++++XX..-----",
"-OO..o..+++XX.;--..+++X..o#..---",
"O..oo###..X..;-----..X.oo####..-",
".oo#######.;;--------.o########.",
"o########-.;*-------O.o#######-.",
"o########-.;*-------O.o#######-.",
"o########-.;*-------O.o#######-.",
"#########-.;&-------O.o#######-.",
".#######--.&&------OO.######---.",
"-..###--..$..----OO..o..##--...;",
"---..-..$$+++..-O..oo###.-..;;;-"
};
