/* XPM */
static char *result[] = {
/* columns rows colors chars-per-pixel */
"32 32 91 1 ",
"  c black",
". c #040403",
"X c #050604",
"o c #050704",
"O c #060705",
"+ c #060805",
"@ c #070805",
"# c #070806",
"$ c #070906",
"% c #080805",
"& c #080906",
"* c #080907",
"= c #090A06",
"- c #080A07",
"; c #090A07",
": c #0A0B07",
"> c #0A0C07",
", c #090909",
"< c #0A0B08",
"1 c #0B0C08",
"2 c #0B0C09",
"3 c #0B0D09",
"4 c #0C0D09",
"5 c #0C0E09",
"6 c #0D0E09",
"7 c #0C0D0A",
"8 c #0C0E0A",
"9 c #0D0E0A",
"0 c #0D0F0A",
"q c #0D0F0B",
"w c #0E0F0A",
"e c #0D110B",
"r c #0E110B",
"t c #0E110C",
"y c #0E110D",
"u c #0F120C",
"i c #0F130D",
"p c #11130D",
"a c #11140D",
"s c #12140D",
"d c #11140E",
"f c #12160F",
"g c #13160F",
"h c gray7",
"j c #141711",
"k c #151912",
"l c #171B14",
"z c #181C14",
"x c #191D15",
"c c #191D17",
"v c #1B1F16",
"b c #1A1E18",
"n c #1D1D1D",
"m c #221812",
"M c #1B2017",
"N c #1A2018",
"B c #1B2118",
"V c #1B2019",
"C c #1B2119",
"Z c #1B211A",
"A c #1C2118",
"S c #1C2218",
"D c #1D2219",
"F c #1C221A",
"G c #1D231B",
"H c #1E241A",
"J c #232A1E",
"K c #33291E",
"L c #1A2239",
"P c #262D21",
"I c #262E21",
"U c #272E21",
"Y c #293223",
"T c #2A3324",
"R c #353D2B",
"E c #363F2D",
"W c #423426",
"Q c #37412D",
"! c #38422E",
"~ c #584430",
"^ c #47543C",
"/ c #4B503B",
"( c #785D3F",
") c #3D545F",
"_ c #4E5C42",
"` c #58746A",
"' c #957856",
"] c #699484",
"[ c #7AB78E",
"{ c #97C7A5",
"} c None",
/* pixels */
"UUJvyo>>>>>>>>>>>>>>>>>>>>oyvJUU",
"_^EV6D/llH//TT!HH!TT//Hll/HwGE^_",
"GGcH:%THH/490wTw6Tww09/HHY:1AFGG",
"EGM/4&<!T96qhhnnnnhhew6TQ<44/BG^",
"GGPH44@466hhLL)LL)LLhh96=444H/GG",
"EGST!9r*ahL)])]L)]L))Lhka1r!THG^",
"EGR9353hh)][LL{LL{LL[))hh$q09!G^",
"EFT4<1h)]  ]  ]  ]  ]  )Lh414TG^",
"EC/91n)][)]{)]{)L{)]{)L])Lhsw/G^",
"EVH!h)]L)  )  )  )  )  )L)Lh!HG^",
"ENTh)]L ]LL]LL]LL]LL]LL] L)LhIG^",
"EbqhL````]][`][`][`][`]`]``LhtG^",
"EC8,+mmmmmmmmm++++mmmmmmmm++,qG^",
"EZ;,W~Kmm }}}}}}}}}}}} mmK~W,<G^",
"EGjh~(WKm }}}}}}}}}}}} mKW(~hzG^",
"EGun~'KWK }}}}}}}}}}}} KWK'~nfG^",
"EG<h~'WKK }}}}}}}}}}}} KKW'~h7G^",
"EGkh~(WWm }}}}}}}}}}}} mWW(~hxG^",
"EGi,~~WK) }}}}}}}}}}}} )KW~~,gG^",
"EG<,mmK)) }}}}}}}}}}}} ))Kmm,gG^",
"EGj,KK[)m }}}}}}}}}}}} m)[KK,zG^",
"EGehWW]Km }}}}}}}}}}}} mK]WWhdG^",
"EG-hmmKKK }}}}}}}}}}}} KKKmmh<G^",
"EGpn~'WWm }}}}}}}}}}}} mWW'~njG^",
"EG2h~(KWm }}}}}}}}}}}} mWK(~hqG^",
"EGOn~(WKK }}}}}}}}}}}} KKW(~n&G^",
"EG3h~'KWm }}}}}}}}}}}} mWK'~hrG^",
"GG#h~(WKm }}}}}}}}}}}} mKW(~h;GG",
"EG.h~(KK }}}}}}}}}}}}}} KK(~hXG^",
"GGGn~~K }}}}}}}}}}}}}}}} K~~nGGG",
"_^EhKK }}}}}}}}}}}}}}}}}} KKhE^_",
"__^,  }}}}}}}}}}}}}}}}}}}}  h^__"
};
