/* XPM */
static char *result[] = {
/* columns rows colors chars-per-pixel */
"32 32 35 1 ",
"  c black",
". c #660005",
"X c #402F02",
"o c #5A3D06",
"O c #604102",
"+ c #725006",
"@ c #004162",
"# c #00507A",
"$ c #B6000D",
"% c #FF0D01",
"& c #855F0B",
"* c #896309",
"= c #B27E0B",
"- c #A27C16",
"; c #A58525",
": c #E6AC16",
"> c #E8B635",
", c #F1CB5C",
"< c #FFE347",
"1 c #005480",
"2 c #005586",
"3 c #00679C",
"4 c #0078B6",
"5 c #007CBC",
"6 c #007EC0",
"7 c #0082CC",
"8 c #00A2F6",
"9 c #03A3FF",
"0 c #0BA6FF",
"q c #3DB4FF",
"w c #FFFBB0",
"e c #FFFFFA",
"r c #FFFFFD",
"t c white",
"y c None",
/* pixels */
"yyyyyyyyyyyyyyyyyyyyyyyyyyyyyyyy",
"yyyyyyyyyyyyyyyyyyyyyyyyyyyyyyyy",
"yyyyyyyyyyyyyyyyyyyyyyyyyyyyyyyy",
"yyyyyyyyyyyyy  yy yyyyyyyyyyyy y",
"yyyyyyyyyyyy wO  w  yyyy yyyy = ",
"yyyyyyyyyyyy Ow=O, , y  q yyy < ",
"yyyyyyyyyyyyy =,=&:=  7#7 yy :w ",
"yyyyyyyyyyyyy O=,:OOw#q  yyyO=r ",
"yyyyyyyyyyyy w,&:&,:&w3 yyyX,&w ",
"yyyyyyyyyyyyy  :O,O2:&, yy  =:r ",
"yyyyyyyyyyyyy ,=OwXqO=O=  =,O=r ",
"yyyyyyyyyyyyyy @,:w3X:OO&OOX,:t ",
"yyyyyyyyyyyyyyy 2,:,:&&:,::O:t  ",
"yyyyyyyyyyyyyy +02,OO&:=O=,&=t y",
"yyyyyyyyyyyyy +*3 @,O:=O,&,&:t y",
"yyyyyyyyyyyy 4-o y  =,&:&X,Xw yy",
"yyyyyyyyyyy +9o yyy O,=&:,&wt yy",
"yyyyyyyy  @3;3 yyy ,=O,OOXwt yyy",
"yyyyyyy @418o yyyy  :X:,:wt yyyy",
"yyyyyy 41$@8@ yy :=OO,=&wt yyyyy",
"yyyyyy q$%.q      :==:tr  yyyyyy",
"yyyyyy@8@.14   =>>ewwt    y   yy",
"yyyyy 1814@ y                 yy",
"yyyy 6o5@  yy                yyy",
"yyy 181 yyy                 yyyy",
"yy 6@3 y                  yyyyyy",
"y  q1        yy          yyyyyyy",
" 6#3       yyyy        yyyyyyyyy",
" q       yyyyyyy  yyyyyyyyyyyyyy",
"y      yyyyyyyyyyyyyyyyyyyyyyyyy",
"y    yyyyyyyyyyyyyyyyyyyyyyyyyyy",
"yyy yyyyyyyyyyyyyyyyyyyyyyyyyyyy"
};
