/* XPM */
static char *e073c572316f47e19b4758f09addf1eeWjX0iNWDEmo5dqvQ[] = {
/* columns rows colors chars-per-pixel */
"32 32 14 1 ",
"  c None",
". c #0E0E18",
"X c #451810",
"o c #7F4702",
"O c #2F3F43",
"+ c #59686C",
"@ c #C56C05",
"# c #E69C0A",
"$ c #C69832",
"% c #FFE536",
"& c #03EFFE",
"* c #939393",
"= c #BEBBBB",
"- c #D0D0D0",
/* pixels */
"    .=-.                .-=.    ",
"   .--=+.              .+=--.   ",
"  .=--**.     ...      .**--=.  ",
"  .=-*++*..  .###.   ..*++*==.  ",
" .*==++++*+..##%##. .+*++++*=*. ",
" .=*++*++O...###@@....+++*++**. ",
".==++*OOO@##.&.&.@.##@OO.+*++==.",
".-*+*O@##%#@X#.#@oX@#%##@.=*+*-.",
"*-+*=.###@@o.#.#@.o@@@###.*=*+-*",
"=-+*=*.@@@ooo....Xooo@@@.=*=*+-=",
"=-+=*=*..X@@@.XoX.@@@XX.o.=*=*-=",
"-=*=*==.@o...Xo@oXX...oo@o.*=*=-",
"-=*-=-=O#@o.@@XoX@@oX.@##o.==*=-",
"=-==-=O@o@@X#%%#%%#@oXXo@X.-=*-=",
"=-*-=O@#@Xo.X@#@##@oX.X#%@X.-*-=",
"*-=-OX#@@o.+..oXo....+.@##o.-=-*",
".-=.o$X@o.+.XX@o@XXX.++.##@O=*-.",
".-=.#o#X.*.X#ooXooXo@.*.XoX.=*-.",
".=-.@oXX .##@.@o@.X@##.X#X@.=-=.",
" .-=.@o. #@X..#@#..X#@oXX@o.=-. ",
" .-==..  .XoX.###.oXXXX.@o.==-. ",
" .-=*.  .#@@oX%#%XXo@o. ..-*=-. ",
"  .-=. .X@@oXXX@@oXXXX.   .=-.  ",
"  .-=..#@XXXXo.@@@.Xo@o.  .=-.  ",
"   .-. .o@o@oXo....X@#@.  .-.   ",
"    .   .o@oooX.   .o@oX.  .    ",
"         ....oo.    ..Xo.       ",
"             .o.    .o@@.       ",
"              ..     .oo.       ",
"          ............@@.       ",
"      .....................     ",
"         ................       "
};
