/* XPM */
static char *_15941e39e294c3aa1e4fc25ef935dc6ZR1frN3vQFg4Yc5S[] = {
/* columns rows colors chars-per-pixel */
"32 32 9 1 ",
"  c #090303",
". c #1E0A0A",
"X c #350F0F",
"o c #4B1515",
"O c #532121",
"+ c #592D2D",
"@ c #5F3B3B",
"# c #624646",
"$ c white",
/* pixels */
"XXX.X.oXoX.XXoXXX...XXXX.o.o.oO.",
"oXOXO.o.o..OXOXXO.O.X.Xo.o.oXO.X",
"XOX.OX.O..OoO..O..oOXOXO.X.O.O.o",
"XOXOX.Xo.XOX.XXOXX.OX.OXX.OoX..o",
"oO.O.OX...XO..OX...OX.....O.o.oX",
"o.OXOX..X.XoX.o.Xo.o..XooX..oOo.",
"X.o.OX.XO..X..X.o...OO# .OX..XO.",
"XOo.o..OX.XOXO..o.O@##X.X#@OX.o.",
"..X...XOX.OXOXX.o..oO@##@OoX..X.",
".XXOX.OX.Xo.o.OX..X.XooOOX...XOX",
"....OXOXX.....XOoO.....X.o.o.OXO",
"X.o.oXoX.OX.XO.OX.O.o.o.o.o..X.O",
"O.OXX.Xo.XO...OXOXO.o.X.o.OXO.OX",
"oOXO.o.oX.OX..OXoXoXOXOX..OXOXOX",
"X..OXO.X..XX.oXoX.o.XOXOXXo.o.oo",
"X.oXO.XOX.O.O.X..o..XoXO.o..XXo.",
"o.o.oXOX.O.O.oX.XoX.X.oXoX.XXo.X",
"X.X.X.OX.O.OXo.XOXOXOXo.o..OXOXo",
"..OXOX.O.oXo.O.OXOX.OX.X..OXO..o",
"XO.XO..O.X.X.O.OXO..X..O.XO.OXOX",
"oO..X.XooooX.X..oX.X.OXO..o.o.O.",
"X.X..XOO++OOo..Xo..XOXO.X.OX..o.",
".X.oo@+@XX+@@OX.X.X.O.OX.OX..Xo.",
"o.oO@##XO.X##@@o.OX.o.o.XO..X..O",
"X..XO@@X. X@@Oo..XO.X.X..X.XOXOX",
"oX..XXO+XX+OXX...XoX.XoO.XXO.XO.",
"oOX..X.XOOX..X.X..oX.XOX...OXOX.",
"XO.XO....X..XO.OX.XO.oO.XOXoXo..",
"O..XXOXo..o.O.O.OXOXXoX.XO.X.o.X",
"oOXO.o.oX.OXO.OXoXO.OXOXOX...X..",
"X.o.XO.O.Xo.o.oo.o.O.o.o...oO.XX",
"....ooXO.o..XXo..XXo.X.XXoXOX.oX"
};
